<svg baseProfile="full" height="200" version="1.1" width="200" xmlns="http://www.w3.org/2000/svg" xmlns:ev="http://www.w3.org/2001/xml-events" xmlns:xlink="http://www.w3.org/1999/xlink"><defs /><g id="lines" stroke="black"><line x1="62.5" x2="62.5" y1="125.283537821" y2="20.0" /><line x1="62.5" x2="98.75" y1="20.0" y2="20.0" /><line x1="35.0" x2="35.0" y1="157.310965643" y2="125.283537821" /><line x1="35.0" x2="62.5" y1="125.283537821" y2="125.283537821" /><line x1="20.0" x2="20.0" y1="180.0" y2="157.310965643" /><line x1="20.0" x2="35.0" y1="157.310965643" y2="157.310965643" /><line x1="50.0" x2="50.0" y1="165.854041976" y2="157.310965643" /><line x1="50.0" x2="35.0" y1="157.310965643" y2="157.310965643" /><line x1="40.0" x2="40.0" y1="180.0" y2="165.854041976" /><line x1="40.0" x2="50.0" y1="165.854041976" y2="165.854041976" /><line x1="60.0" x2="60.0" y1="180.0" y2="165.854041976" /><line x1="60.0" x2="50.0" y1="165.854041976" y2="165.854041976" /><line x1="90.0" x2="90.0" y1="138.197389826" y2="125.283537821" /><line x1="90.0" x2="62.5" y1="125.283537821" y2="125.283537821" /><line x1="80.0" x2="80.0" y1="180.0" y2="138.197389826" /><line x1="80.0" x2="90.0" y1="138.197389826" y2="138.197389826" /><line x1="100.0" x2="100.0" y1="180.0" y2="138.197389826" /><line x1="100.0" x2="90.0" y1="138.197389826" y2="138.197389826" /><line x1="135.0" x2="135.0" y1="103.542974522" y2="20.0" /><line x1="135.0" x2="98.75" y1="20.0" y2="20.0" /><line x1="120.0" x2="120.0" y1="180.0" y2="103.542974522" /><line x1="120.0" x2="135.0" y1="103.542974522" y2="103.542974522" /><line x1="150.0" x2="150.0" y1="169.139864883" y2="103.542974522" /><line x1="150.0" x2="135.0" y1="103.542974522" y2="103.542974522" /><line x1="140.0" x2="140.0" y1="180.0" y2="169.139864883" /><line x1="140.0" x2="150.0" y1="169.139864883" y2="169.139864883" /><line x1="160.0" x2="160.0" y1="180.0" y2="169.139864883" /><line x1="160.0" x2="150.0" y1="169.139864883" y2="169.139864883" /></g><g font-size="14" text-anchor="middle"><text dx="0" dy="-5" x="98.75" y="20.0">16</text><text dx="-10" dy="-5" x="62.5" y="125.283537821">12</text><text dx="-10" dy="-5" x="35.0" y="157.310965643">10</text><text dx="0" dy="20" x="20.0" y="180.0">2</text><text dx="-10" dy="-5" x="50.0" y="165.854041976">9</text><text dx="0" dy="20" x="40.0" y="180.0">6</text><text dx="0" dy="20" x="60.0" y="180.0">7</text><text dx="-10" dy="-5" x="90.0" y="138.197389826">11</text><text dx="0" dy="20" x="80.0" y="180.0">1</text><text dx="0" dy="20" x="100.0" y="180.0">5</text><text dx="-10" dy="-5" x="135.0" y="103.542974522">14</text><text dx="0" dy="20" x="120.0" y="180.0">4</text><text dx="-10" dy="-5" x="150.0" y="169.139864883">8</text><text dx="0" dy="20" x="140.0" y="180.0">0</text><text dx="0" dy="20" x="160.0" y="180.0">3</text></g><circle cx="98.75" cy="20.0" r="3" /><circle cx="62.5" cy="125.283537821" r="3" /><circle cx="35.0" cy="157.310965643" r="3" /><circle cx="20.0" cy="180.0" r="3" /><circle cx="50.0" cy="165.854041976" r="3" /><circle cx="40.0" cy="180.0" r="3" /><circle cx="60.0" cy="180.0" r="3" /><circle cx="90.0" cy="138.197389826" r="3" /><circle cx="80.0" cy="180.0" r="3" /><circle cx="100.0" cy="180.0" r="3" /><circle cx="135.0" cy="103.542974522" r="3" /><circle cx="120.0" cy="180.0" r="3" /><circle cx="150.0" cy="169.139864883" r="3" /><circle cx="140.0" cy="180.0" r="3" /><circle cx="160.0" cy="180.0" r="3" /></svg>